<?xml version="1.0" encoding="UTF-8"?><svg id="Layer_1" xmlns="http://www.w3.org/2000/svg" viewBox="0 0 720 720"><defs><style>.cls-1{fill:#2b004d;}.cls-1,.cls-2,.cls-3,.cls-4{stroke-width:0px;}.cls-2{fill:#231f20;}.cls-3{fill:#d18dbe;}.cls-4{fill:#ffe5f2;}</style></defs><path class="cls-3" d="m528.25,528.75c8.38-8.38,8.38-22.03,0-30.41-.71-.71-1.46-1.36-2.24-1.95l-127.76-110.85h0c-3.72-3.7-9.76-3.69-13.47.02s-3.72,9.75-.02,13.47h0s111.21,127.57,111.21,127.57c.57.75,1.19,1.47,1.87,2.15,8.38,8.38,22.03,8.38,30.41,0Z"/><path class="cls-3" d="m192.09,192.59c-8.38,8.38-8.38,22.03,0,30.41.71.71,1.46,1.36,2.24,1.95l127.76,110.85h0c3.72,3.7,9.76,3.69,13.47-.02s3.72-9.75.02-13.47h0s-111.21-127.57-111.21-127.57c-.57-.75-1.19-1.47-1.87-2.15-8.38-8.38-22.03-8.38-30.41,0Z"/><path class="cls-3" d="m192.09,528.75c8.38,8.38,22.03,8.38,30.41,0,.71-.71,1.36-1.46,1.95-2.24l110.85-127.76h0c3.7-3.72,3.69-9.76-.02-13.47s-9.75-3.72-13.47-.02h0s-127.57,111.21-127.57,111.21c-.75.57-1.47,1.19-2.15,1.87-8.38,8.38-8.38,22.03,0,30.41Z"/><path class="cls-3" d="m528.25,192.59c-8.38-8.38-22.03-8.38-30.41,0-.71.71-1.36,1.46-1.95,2.24l-110.85,127.76h0c-3.7,3.72-3.69,9.76.02,13.47s9.75,3.72,13.47.02h0s127.57-111.21,127.57-111.21c.75-.57,1.47-1.19,2.15-1.87,8.38-8.38,8.38-22.03,0-30.41Z"/><path class="cls-1" d="m360.22,56.44c-15.16,0-27.5,12.34-27.5,27.5,0,1.29.1,2.55.27,3.79l15.29,215.78h0c.02,6.71,5.48,12.16,12.2,12.16s12.18-5.45,12.2-12.17h0l14.8-215.93c.16-1.19.25-2.4.25-3.64,0-15.16-12.34-27.5-27.5-27.5Z"/><path class="cls-1" d="m360.22,664.9c-15.16,0-27.5-12.34-27.5-27.5,0-1.29.1-2.55.27-3.79l15.29-215.78h0c.02-6.71,5.48-12.16,12.2-12.16s12.18,5.45,12.2,12.17h0l14.8,215.93c.16,1.19.25,2.4.25,3.64,0,15.16-12.34,27.5-27.5,27.5Z"/><circle class="cls-2" cx="360.22" cy="360.67" r="22.5"/><path class="cls-1" d="m664.46,360.67c0-15.16-12.34-27.5-27.5-27.5-1.29,0-2.55.1-3.79.27l-215.78,15.29h0c-6.71.02-12.16,5.48-12.16,12.2s5.45,12.18,12.17,12.2h0s215.93,14.8,215.93,14.8c1.19.16,2.4.25,3.64.25,15.16,0,27.5-12.34,27.5-27.5Z"/><path class="cls-1" d="m55.99,360.67c0-15.16,12.34-27.5,27.5-27.5,1.29,0,2.55.1,3.79.27l215.78,15.29h0c6.71.02,12.16,5.48,12.16,12.2s-5.45,12.18-12.17,12.2h0s-215.93,14.8-215.93,14.8c-1.19.16-2.4.25-3.64.25-15.16,0-27.5-12.34-27.5-27.5Z"/><path class="cls-4" d="m302.35,217.42c-5.28,2.13-7.84,8.16-5.71,13.44.18.45.39.87.63,1.28l35.67,72.97h0c.95,2.33,3.62,3.46,5.96,2.52s3.47-3.61,2.54-5.95h0s-25.22-77.25-25.22-77.25c-.11-.44-.25-.87-.43-1.3-2.13-5.28-8.16-7.84-13.44-5.71Z"/><path class="cls-4" d="m418.1,503.92c-5.28,2.13-11.31-.43-13.44-5.71-.18-.45-.33-.9-.44-1.36l-25.03-77.27h0c-.94-2.34.2-5.01,2.54-5.95s5.01.19,5.96,2.52h0s35.52,73.09,35.52,73.09c.22.39.42.8.6,1.23,2.13,5.28-.43,11.31-5.71,13.44Z"/><path class="cls-4" d="m418.1,217.42c-5.28-2.13-11.31.43-13.44,5.71-.18.45-.33.9-.44,1.36l-25.03,77.27h0c-.94,2.34.2,5.01,2.54,5.95,2.34.94,5.01-.19,5.96-2.52h0s35.52-73.09,35.52-73.09c.22-.39.42-.8.6-1.23,2.13-5.28-.43-11.31-5.71-13.44Z"/><path class="cls-4" d="m302.35,503.92c-5.28-2.13-7.84-8.16-5.71-13.44.18-.45.39-.87.63-1.28l35.67-72.97h0c.95-2.33,3.62-3.46,5.96-2.52s3.47,3.61,2.54,5.95h0s-25.22,77.25-25.22,77.25c-.11.44-.25.87-.43,1.3-2.13,5.28-8.16,7.84-13.44,5.71Z"/><path class="cls-4" d="m216.98,418.55c2.13,5.28,8.16,7.84,13.44,5.71.45-.18.87-.39,1.28-.63l72.97-35.67h0c2.33-.95,3.46-3.62,2.52-5.96-.94-2.34-3.61-3.47-5.95-2.54h0s-77.25,25.22-77.25,25.22c-.44.11-.87.25-1.3.43-5.28,2.13-7.84,8.16-5.71,13.44Z"/><path class="cls-4" d="m503.47,302.8c2.13,5.28-.43,11.31-5.71,13.44-.45.18-.9.33-1.36.44l-77.27,25.03h0c-2.34.94-5.01-.2-5.95-2.54-.94-2.34.19-5.01,2.52-5.96h0s73.09-35.52,73.09-35.52c.39-.22.8-.42,1.23-.6,5.28-2.13,11.31.43,13.44,5.71Z"/><path class="cls-4" d="m216.98,302.8c-2.13,5.28.43,11.31,5.71,13.44.45.18.9.33,1.36.44l77.27,25.03h0c2.34.94,5.01-.2,5.95-2.54s-.19-5.01-2.52-5.96h0s-73.09-35.52-73.09-35.52c-.39-.22-.8-.42-1.23-.6-5.28-2.13-11.31.43-13.44,5.71Z"/><path class="cls-4" d="m503.47,418.55c-2.13,5.28-8.16,7.84-13.44,5.71-.45-.18-.87-.39-1.28-.63l-72.97-35.67h0c-2.33-.95-3.46-3.62-2.52-5.96s3.61-3.47,5.95-2.54h0s77.25,25.22,77.25,25.22c.44.11.87.25,1.3.43,5.28,2.13,7.84,8.16,5.71,13.44Z"/></svg>