<?xml version="1.0" encoding="UTF-8"?><svg xmlns="http://www.w3.org/2000/svg" viewBox="0 0 95 67"><g id="a"><path d="M58.36,66c1.89-3.17,3.64-5.93,5.21-8.8,1.52-2.79,2.76-5.71,3.29-8.9.14-.82-.11-1.11-.82-1.31-3.08-.87-5.98-2.1-8.57-4.08-4.96-3.8-7.99-8.79-8.94-14.99-1.58-10.27,3.55-20.17,12.82-24.58,4.95-2.35,10.18-2.97,15.58-1.69,8.34,1.98,13.36,7.43,15.92,15.51,1.86,5.86,1.32,11.65-.54,17.37-2.65,8.15-7.74,14.59-14.06,20.11-4.46,3.9-9.35,7.14-14.78,9.49-1.58.69-3.24,1.19-5.11,1.87Z" style="fill:#cec3db; stroke-width:0px;"/><path d="M11.33,65.92c2.16-3.89,4.33-7.52,6.21-11.31.96-1.93,1.41-4.12,2.06-6.2.26-.84-.09-1.23-.94-1.46-6-1.64-10.84-4.94-14.17-10.33C1.46,31.7.4,26.35,1.33,20.6,2.5,13.37,6.28,7.9,12.48,4.24,17.75,1.13,23.47.31,29.44,1.58c6.34,1.34,11.05,4.99,14.16,10.7,2.99,5.5,3.8,11.38,2.66,17.56-1.95,10.51-7.92,18.44-15.71,25.2-4.3,3.73-9.04,6.81-14.25,9.08-1.62.7-3.31,1.21-4.96,1.81Z" style="fill:#cec3db; stroke-width:0px;"/></g><g id="b"><path d="M16.03,64.22c-1.54.65-3.14,1.14-4.7,1.7.82-1.48,1.65-2.93,2.45-4.36" style="fill:none; stroke:#7e62a0; stroke-linecap:round; stroke-linejoin:round; stroke-width:2px;"/><path d="M16.79,56.07c.25-.48.5-.97.74-1.46.96-1.93,1.41-4.12,2.06-6.2.26-.84-.09-1.23-.94-1.46-6-1.64-10.84-4.94-14.17-10.33C1.46,31.7.4,26.35,1.33,20.6,2.5,13.37,6.28,7.9,12.48,4.24,17.75,1.13,23.47.31,29.44,1.58c6.34,1.34,11.05,4.99,14.16,10.7,2.99,5.5,3.8,11.38,2.66,17.56-1.95,10.51-7.92,18.44-15.71,25.2-3.58,3.11-7.46,5.76-11.67,7.87" style="fill:none; stroke:#7e62a0; stroke-dasharray:0 0 10.43 6.26; stroke-linecap:round; stroke-linejoin:round; stroke-width:2px;"/><path d="M63.06,64.3c-1.46.6-3,1.08-4.7,1.7.89-1.5,1.76-2.91,2.58-4.28" style="fill:none; stroke:#7e62a0; stroke-linecap:round; stroke-linejoin:round; stroke-width:2px;"/><path d="M64.06,56.27c1.29-2.51,2.32-5.14,2.8-7.98.14-.82-.11-1.11-.82-1.31-3.08-.87-5.98-2.1-8.57-4.08-4.96-3.8-7.99-8.79-8.94-14.99-1.58-10.27,3.55-20.17,12.82-24.58,4.95-2.35,10.18-2.97,15.58-1.69,8.34,1.98,13.36,7.43,15.92,15.51,1.86,5.86,1.32,11.65-.54,17.37-2.65,8.15-7.74,14.59-14.06,20.11-3.78,3.3-7.86,6.13-12.32,8.35" style="fill:none; stroke:#7e62a0; stroke-dasharray:0 0 10.46 6.27; stroke-linecap:round; stroke-linejoin:round; stroke-width:2px;"/></g></svg>