<?xml version="1.0" encoding="UTF-8"?><svg id="a" xmlns="http://www.w3.org/2000/svg" viewBox="0 0 93 65"><path d="M57.36,65c1.89-3.17,3.64-5.93,5.21-8.8,1.52-2.79,2.76-5.71,3.29-8.9.14-.82-.11-1.11-.82-1.31-3.08-.87-5.98-2.1-8.57-4.08-4.96-3.8-7.99-8.79-8.94-14.99-1.58-10.27,3.55-20.17,12.82-24.58C65.3,0,70.53-.63,75.92.65c8.34,1.98,13.36,7.43,15.92,15.51,1.86,5.86,1.32,11.65-.54,17.37-2.65,8.15-7.74,14.59-14.06,20.11-4.46,3.9-9.35,7.14-14.78,9.49-1.58.69-3.24,1.19-5.11,1.87Z" style="fill:#cec3db; stroke-width:0px;"/><path d="M10.33,64.92c2.16-3.89,4.33-7.52,6.21-11.31.96-1.93,1.41-4.12,2.06-6.2.26-.84-.09-1.23-.94-1.46-6-1.64-10.84-4.94-14.17-10.33C.46,30.7-.6,25.35.33,19.6,1.5,12.37,5.28,6.9,11.48,3.24,16.75.13,22.47-.69,28.44.58c6.34,1.34,11.05,4.99,14.16,10.7,2.99,5.5,3.8,11.38,2.66,17.56-1.95,10.51-7.92,18.44-15.71,25.2-4.3,3.73-9.04,6.81-14.25,9.08-1.62.7-3.31,1.21-4.96,1.81Z" style="fill:#cec3db; stroke-width:0px;"/></svg>